<?xml version="1.0" encoding="UTF-8" standalone="no"?>
<svg xmlns="http://www.w3.org/2000/svg" xmlns:xlink="http://www.w3.org/1999/xlink" width="30" height="30" viewBox="0 0 30 30" version="1.1" fill="white">
  <g transform="translate(0,-289.0625)">
    <path d="m 22.778176,294.87011 c -1.946455,-1.94646 -5.124615,-1.94645 -7.071068,0 l -0.707107,0.70711 -4.949747,4.94974 -2.8284274,2.82843 c -2.7299272,2.72993 -2.7299293,7.16957 0,9.8995 2.7299292,2.72992 7.1695674,2.72992 9.8994944,0 l 7.778175,-7.77818 -1.414213,-1.41421 -7.778175,7.77817 c -1.970919,1.97092 -5.100151,1.97092 -7.0710679,0 -1.9709166,-1.97091 -1.9709187,-5.10015 0,-7.07107 l 2.8284269,-2.82842 4.949748,-4.94975 0.707106,-0.70711 c 1.187445,-1.18744 3.055199,-1.18744 4.242641,0 1.187442,1.18744 1.187445,3.0552 0,4.24264 l -0.302454,0.30246 -5.3544,5.3544 -2.12132,2.12132 c -0.403971,0.40397 -1.010246,0.40397 -1.414214,0 -0.403968,-0.40397 -0.40397,-1.01025 0,-1.41422 l 7.475721,-7.47572 -1.414214,-1.41421 -7.475721,7.47572 c -1.1629781,1.16298 -1.1629802,3.07966 0,4.24264 1.162981,1.16298 3.079663,1.16298 4.242641,0 l 2.12132,-2.12132 5.354401,-5.3544 0.302454,-0.30245 c 1.946453,-1.94646 1.946455,-5.12462 0,-7.07107 z"/>
  </g>
</svg>
